<?xml version="1.0" encoding="UTF-8"?>
<svg width="158px" height="158px" viewBox="0 0 158 158" version="1.1" xmlns="http://www.w3.org/2000/svg" xmlns:xlink="http://www.w3.org/1999/xlink">
    <!-- Generator: Sketch 41.2 (35397) - http://www.bohemiancoding.com/sketch -->
    <title>Icon Peaceful</title>
    <desc>Created with Sketch.</desc>
    <defs>
        <circle id="path-1" cx="79" cy="79" r="79"></circle>
    </defs>
    <g id="Page-1" stroke="none" stroke-width="1" fill="none" fill-rule="evenodd">
        <g id="CEO-Retreat" transform="translate(-921.000000, -1171.000000)">
            <g id="What-Next" transform="translate(185.000000, 828.000000)">
                <g id="Icon-Peaceful" transform="translate(736.000000, 343.000000)">
                    <mask id="mask-2" fill="white">
                        <use xlink:href="#path-1"></use>
                    </mask>
                    <use id="Mask" fill="#2A4254" xlink:href="#path-1"></use>
                    <g id="Group" mask="url(#mask-2)" stroke-linecap="round" stroke="#FF8330" stroke-width="3.24">
                        <g transform="translate(21.175258, 17.917526)">
                            <path d="M46.4540564,117.043944 L46.2018582,102.550649 C46.2018582,102.550649 26.3690178,104.81681 22.8755003,101.713773 C19.3819829,98.6107351 19.4284637,82.278803 19.4284637,82.278803 L9.95231506,81.800794 C9.95231506,81.800794 8.68147285,80.8428045 10.8212165,77.4434231 C12.9609601,74.0440418 22.8754998,61.2938926 22.8754998,61.2938926 C22.8754998,61.2938926 21.5251299,43.4117439 31.0668805,31.7905646 C40.608631,20.1693853 50.4975468,18.0770719 62.0213759,18.0770719 C73.545205,18.0770719 91.0295861,23.9145045 96.0100073,46.2682714 C100.990428,68.6220384 87.3298593,82.2788011 87.3298593,82.2788011 L87.0776611,116.389154" id="Path-3" stroke-linejoin="round"></path>
                            <path d="M60.2342476,51.377996 C60.2342476,51.377996 64.2561385,41.3294519 74.5702483,43.0123218 C84.8843582,44.6951917 84.1386612,56.5607973 78.2645453,64.5238516 C72.3904294,72.4869059 60.2342471,82.4978455 60.2342471,82.4978455 C60.2342471,82.4978455 44.4173213,67.3113491 40.3409179,60.8016374 C36.2645145,54.2919256 37.7203367,43.8669992 46.6965973,43.0123218 C55.6728579,42.1576444 60.2342476,51.377996 60.2342476,51.377996 Z" id="Path-4" stroke-linejoin="round"></path>
                            <path d="M104.402492,57.6436563 L116.990726,57.2031786" id="Path-5" stroke-linejoin="round"></path>
                            <path d="M98.0606927,34.8378168 L109.077419,28.7160865" id="Path-5" stroke-linejoin="round"></path>
                            <path d="M81.120136,17.7371046 L88.5239934,7.52139434" id="Path-5" stroke-linejoin="round"></path>
                            <path d="M57.8247423,13.1956366 L57.8250882,0.568168217" id="Path-5" stroke-linejoin="round"></path>
                            <path d="M19.0561973,36.4792708 L8.14793531,30.1653506" id="Path-5" stroke-linejoin="round"></path>
                            <path d="M13.2469157,58.8724699 L0.652938142,58.6518754" id="Path-5"></path>
                            <path d="M36.0665566,18.8752629 L28.6630458,8.65930009" id="Path-5" stroke-linejoin="round"></path>
                        </g>
                    </g>
                </g>
            </g>
        </g>
    </g>
</svg>